<?xml version="1.0" encoding="UTF-8"?>
<svg xmlns="http://www.w3.org/2000/svg" viewBox="0 0 699.98 667.91">
  <defs>
    <style>
      .cls-1 {
        fill: #633;
      }

      .cls-2 {
        fill: #fc6;
      }

      .cls-3 {
        fill: #141466;
        stroke: #633;
        stroke-miterlimit: 10;
        stroke-width: 24px;
      }
    </style>
  </defs>
  <g id="Capa_1">
    <path class="cls-1" d="M157.87,601.51l-11.87-46.64-.23,46.64h12.11ZM191,617.05h58.91c-2.27-5.7-7.81-9.69-14.3-9.69h-27.42c-7.11,0-13.12-5.23-14.06-12.27l-9.77-72.89c-2.5-18.67.78-37.81,9.14-54.61-3.83-1.56-7.58-3.28-11.33-5.08-4.45,7.97-19.3,31.48-21.56,34.84,0-.08,29.77,118.98,30.39,119.69h0ZM364.44,510.26c-4.06-12.42-6.56-26.33-7.42-41.17-10.31,4.06-20.94,7.27-31.8,9.69,2.5,8.44,5.94,15.7,10.16,21.33,5,6.8,10.7,10.7,16.95,11.8,6.25,1.09,11.64-1.41,12.11-1.64ZM381.08,577.37l-.08-34.45c-.86-1.09-1.64-2.27-2.5-3.44l-8.28,36.88,10.39.94.47.08ZM381.08,615.57v-9.45c-.94-.23-29.37-2.89-29.37-2.89-4.06-.39-7.81-2.42-10.16-5.78-2.42-3.28-3.28-7.5-2.34-11.48l10.23-45.86s-5.47-.23-13.59-3.83l-6.48,74.69,51.72,4.61h0ZM409.44,639.56h62.58c-2.27-5.7-7.81-9.69-14.3-9.69h-26.64c-4.06,0-7.97-1.72-10.62-4.84-2.66-3.05-3.91-7.19-3.36-11.17l6.17-46.64c-.55,0-9.92-1.25-13.91-2.58l.08,74.92h0ZM649.12,159.79h19.37c-4.61-8.75-13.75-14.77-24.38-14.77h-105.78c-6.02,0-11.25-3.75-13.28-9.22-3.28-5.23-8.28-9.22-13.98-11.33-1.41,6.48-.47,13.44,2.81,19.38,4.77,8.67,13.98,14.22,23.91,14.45,7.81.16,14.06,6.64,13.91,14.45-.16,7.73-6.48,13.91-14.14,13.91h-.31c-4.69-.08-9.22-.78-13.59-2.03v41.33c0,30.16-17.89,57.5-45.63,69.53-3.52,1.56-7.5,1.56-11.02.16-3.52-1.48-6.33-4.3-7.73-7.81-1.02-2.5-60.62-111.02-60.62-111.02-8.44-15.31-19.14-24.06-29.53-24.06s-21.09,8.75-29.53,24.06l-7.97,14.37c-7.58,13.75-21.56,22.03-37.27,22.03s-29.69-8.2-37.27-22.03l-7.89-14.45c-8.44-15.23-19.22-24.06-29.53-24.06s-21.09,8.75-29.53,24.06l-15.08,27.58c-12.34,22.42-27.97,43.59-46.33,62.89-19.53,20.55-36.02,53.2-45.08,89.61,0,.08-.08.23-.08.31s-.08.16-.08.23c-3.67,15.31-1.02,31.8,7.34,45.39,10.31,16.72,16.25,41.09,16.25,66.8,0,14.53-1.87,28.91-5.47,41.56-2.58,8.98-3.2,18.13-1.95,27.19l10.94,81.87c.08.62.16,19.37.16,19.37h62.58c-1.25-3.2-3.59-5.94-6.72-7.73-2.34-1.33-4.92-2.03-7.58-2.03h-27.42c-3.75,0-7.34-1.48-10.08-4.14-2.66-2.66-4.14-6.33-4.14-10.08l.39-76.8c.08-16.17,4.3-32.11,12.27-46.25,1.25-2.27,10.55-16.17,13.2-20.39,8.2-12.66,14.84-24.22,20.39-35.16,1.72-3.44,4.84-6.02,8.52-7.19,3.75-1.09,7.73-.7,11.09,1.25,2.97,1.72,6.09,3.36,9.06,4.84,11.48,5.7,23.59,10.31,35.94,13.59,15.86,4.22,32.27,6.33,48.91,6.33,28.2,0,55.23-6.02,80.47-17.81.86-8.83,2.34-17.58,4.45-26.09,1.88-7.58,9.53-12.27,17.11-10.39s12.27,9.53,10.39,17.11c-2.11,8.75-3.52,17.89-4.22,27.11-3.83,52.97,17.11,91.64,38.28,93.13,13.12.94,24.06-11.41,29.37-18.83,10.78-15,18.2-36.17,21.09-59.61.94-7.73,7.97-13.28,15.78-12.34,2.27.23,6.17,1.72,6.17,1.72,40.62,11.09,91.41-39.53,110.86-110.55,5-18.2,7.66-36.41,7.97-54.14v-70.86c0-2.97.86-5.63,2.42-7.89,2.58-3.75,6.87-6.25,11.8-6.25h15c10.55,0,19.77-6.02,24.38-14.77h-19.37c-7.03,0-12.73-5.7-12.73-12.73s5.7-12.81,12.73-12.81h0ZM644.12,116.74c30.78,0,55.86,25.08,55.86,55.86s-25.08,55.86-55.86,55.86h-.86v57.19c-.31,20.16-3.36,40.7-8.98,61.25-11.25,41.17-31.87,77.34-57.97,101.8-21.8,20.47-45.55,31.17-68.52,31.17-2.73,0-5.39-.16-8.05-.47-4.53,22.03-12.73,41.95-23.67,57.27-6.95,9.69-14.77,17.19-23.12,22.34l-5.63,42.58h10.47c23.98,0,43.59,19.53,43.67,43.52,0,6.17-2.34,11.88-6.64,16.17s-9.92,6.64-16.02,6.64h-69.69c-14.06,0-25.62-10.39-27.66-23.91l-55-4.84c-15.39-1.33-26.8-15-25.47-30.39l8.44-96.41c-5.23-8.28-9.45-18.13-12.42-29.14-6.56.62-13.2.94-19.77.94-19.06,0-37.97-2.42-56.17-7.27-.16,0-.23-.08-.39-.08-7.27,12.5-10.16,27.27-8.28,41.56l8.12,60.62h15c23.98,0,43.59,19.53,43.67,43.52,0,6.17-2.34,11.88-6.64,16.17s-10,6.64-16.02,6.64h-53.98c-.08,8.75-5.23,16.72-13.12,20.39-2.97,1.41-6.25,2.11-9.53,2.11h-69.61c-15.47,0-28.05-12.58-28.05-28.05v-16.87l-10.86-80.94c-1.72-12.97-.78-26.02,2.81-38.75,2.89-10.16,4.45-21.88,4.45-33.83,0-20.31-4.45-39.69-12.03-51.88-9.14-14.77-13.59-31.95-13.13-48.98-6.95,4.53-11.56,12.34-11.56,21.25v44.06l12.81,36.8c1.48,4.3.86,9.14-1.8,12.89-2.66,3.75-6.95,5.94-11.56,5.94H14.2c-4.61,0-8.91-2.19-11.56-5.94s-3.36-8.52-1.88-12.89l12.81-36.8v-44.06c0-26.95,20.08-49.38,46.09-53.12,10.78-36.09,27.73-67.34,48.44-89.06,16.72-17.5,30.86-36.72,42.03-57.03l15.16-27.58c18.59-33.67,41.95-38.67,54.3-38.67,6.17,0,15.08,1.25,24.84,6.72,9.69,5.47,20.23,15.16,29.53,31.95l7.97,14.45c3.67,6.64,9.92,7.34,12.42,7.34s8.75-.7,12.42-7.34l7.97-14.37c18.59-33.67,42.03-38.67,54.3-38.67s35.78,5,54.3,38.67l54.84,99.37c10.7-8.91,17.11-22.19,17.11-36.48v-59.3c-2.34-2.81-4.45-5.78-6.25-9.06-9.69-17.5-9.22-39.06,1.09-56.25,2.66-4.38,7.34-6.95,12.42-6.88,17.27.39,33.28,8.67,43.59,22.19h97.58c.23.08.31.08.39.08h0Z"/>
    <path class="cls-2" d="M668.5,159.79h-19.37c-7.03,0-12.73,5.7-12.73,12.73s5.7,12.73,12.73,12.73h19.37c-4.61,8.75-13.75,14.77-24.38,14.77h-15c-4.92,0-9.22,2.5-11.8,6.25-1.48,2.27-2.42,5-2.42,7.89v71.02c-.31,17.73-2.97,35.94-7.97,54.14-19.37,71.02-70.16,121.64-110.78,110.55,0,0-3.98-1.48-6.17-1.72-7.73-.94-14.84,4.61-15.78,12.34-2.81,23.44-10.31,44.61-21.09,59.61-5.31,7.42-16.25,19.77-29.37,18.83-21.17-1.56-42.11-40.16-38.28-93.13.7-9.22,2.11-18.36,4.22-27.11,1.88-7.58-2.81-15.23-10.39-17.11s-15.23,2.81-17.11,10.39c-2.03,8.44-3.52,17.19-4.45,26.09-25.23,11.8-52.27,17.81-80.47,17.81-16.56,0-33.05-2.11-48.91-6.33-12.34-3.28-24.45-7.81-35.94-13.59-3.05-1.48-6.09-3.12-9.06-4.84-3.36-1.88-7.34-2.34-11.09-1.25-3.67,1.09-6.8,3.75-8.52,7.19-5.55,10.94-12.19,22.42-20.39,35.16-2.73,4.22-11.95,18.13-13.2,20.39-7.97,14.06-12.19,30.08-12.27,46.25l-.39,76.8c0,3.75,1.48,7.34,4.14,10.08,2.66,2.66,6.25,4.14,10.08,4.14h27.42c2.66,0,5.31.7,7.58,2.03,3.12,1.72,5.39,4.53,6.72,7.73h-62.58s-.08-18.75-.16-19.37l-10.94-81.87c-1.25-9.06-.55-18.28,1.95-27.19,3.59-12.66,5.47-27.03,5.47-41.56,0-25.7-5.94-50-16.25-66.8-8.36-13.59-11.02-30.08-7.34-45.39,0-.08.08-.16.08-.23s.08-.23.08-.31c9.14-36.41,25.55-69.06,45.08-89.61,18.44-19.3,33.98-40.47,46.33-62.89l15.16-27.58c8.44-15.31,19.14-24.06,29.53-24.06s21.09,8.75,29.53,24.06l7.97,14.45c7.58,13.75,21.56,22.03,37.27,22.03s29.69-8.2,37.27-22.03l7.97-14.37c8.44-15.31,19.14-24.06,29.53-24.06s21.09,8.75,29.53,24.06c0,0,59.61,108.44,60.62,111.02,1.41,3.52,4.22,6.33,7.73,7.81,3.52,1.41,7.5,1.41,11.02-.16,27.73-12.03,45.63-39.3,45.63-69.53v-41.25c4.37,1.17,8.91,1.87,13.59,2.03h.31c7.66,0,13.98-6.17,14.14-13.91.16-7.81-6.02-14.3-13.91-14.45-9.92-.23-19.14-5.78-23.91-14.45-3.28-5.94-4.22-12.89-2.81-19.38,5.7,2.11,10.7,6.02,13.98,11.33,2.03,5.39,7.27,9.22,13.28,9.22h105.78c10.31-.16,19.53,5.86,24.14,14.61h0Z"/>
    <path class="cls-1" d="M580.06,156.51c7.11,0,12.89,5.78,12.89,12.81s-5.78,12.89-12.89,12.89-12.89-5.78-12.89-12.89,5.78-12.81,12.89-12.81Z"/>
    <path class="cls-2" d="M472.01,639.55h-62.58l-.08-75c3.98,1.33,13.36,2.58,13.91,2.58l-6.17,46.64c-.55,4.06.7,8.13,3.36,11.17,2.66,3.05,6.56,4.84,10.62,4.84h26.64c6.48.08,12.03,4.06,14.3,9.77h0ZM381.08,606.04v9.45l-51.87-4.61,6.48-74.69c8.2,3.59,13.59,3.83,13.59,3.83l-10.16,45.94c-.86,3.98,0,8.13,2.34,11.48,2.42,3.28,6.09,5.39,10.16,5.78.08,0,28.52,2.58,29.45,2.81ZM357.01,469.09c.86,14.84,3.44,28.75,7.42,41.17-.47.23-5.86,2.66-12.11,1.64-6.25-1.02-11.95-4.92-16.95-11.8-4.14-5.63-7.58-12.89-10.16-21.33,10.78-2.42,21.48-5.63,31.8-9.69Z"/>
    <path class="cls-1" d="M328.34,397.45c2.11,7.58-2.34,15.31-9.92,17.42-13.28,3.67-27.19,5.55-41.25,5.55s-26.95-1.72-39.84-5.16c-12.66-3.36-25-8.36-36.56-14.92-6.8-3.83-9.22-12.5-5.31-19.3,3.83-6.8,12.5-9.22,19.3-5.31,9.45,5.39,19.45,9.45,29.84,12.19,10.55,2.81,21.56,4.22,32.58,4.22,11.56,0,22.89-1.48,33.75-4.53,7.58-2.11,15.39,2.34,17.42,9.84h0Z"/>
    <path class="cls-2" d="M249.91,617.05h-58.91c-.55-.7-30.31-119.77-30.31-119.77,2.27-3.36,17.11-26.8,21.56-34.84,3.75,1.8,7.5,3.44,11.33,5.08-8.36,16.8-11.64,35.86-9.14,54.61l9.77,72.89c.94,7.03,6.95,12.27,14.06,12.27h27.42c6.33,0,11.95,4.06,14.22,9.77h0Z"/>
  </g>
  <g id="Capa_2">
    <rect class="cls-3" x="440.64" y="38.62" width="117.94" height="138.02" transform="translate(62.38 372.24) rotate(-43.34)"/>
    <rect class="cls-3" x="450.39" y="134.02" width="178.85" height="32.43" transform="translate(44.1 411.45) rotate(-43.34)"/>
    <rect class="cls-3" x="80.88" y="312.42" width="531.51" height="48.11" rx="12.59" ry="12.59" transform="translate(17.35 -16.99) rotate(2.88)"/>
    <circle class="cls-3" cx="81.89" cy="320.65" r="34"/>
    <circle class="cls-3" cx="601.17" cy="347.43" r="34"/>
  </g>
</svg>