<?xml version="1.0" encoding="UTF-8"?>
<svg id="Capa_1" xmlns="http://www.w3.org/2000/svg" viewBox="0 0 700.08 667.61">
  <defs>
    <style>
      .cls-1, .cls-2, .cls-3 {
        fill: #e38fef;
      }

      .cls-1, .cls-2, .cls-3, .cls-4 {
        stroke: #633;
      }

      .cls-1, .cls-4 {
        stroke-miterlimit: 10;
        stroke-width: 24px;
      }

      .cls-5 {
        fill: #633;
      }

      .cls-2 {
        stroke-miterlimit: 10;
        stroke-width: 24px;
      }

      .cls-6 {
        fill: #fc6;
      }

      .cls-3 {
        stroke-miterlimit: 10;
        stroke-width: 24px;
      }

      .cls-4 {
        fill: #89530b;
      }
    </style>
  </defs>
  <g id="Capa_1-2" data-name="Capa_1">
    <path class="cls-5" d="M157.88,601.21l-11.9-46.6-.2,46.6h12.1,0ZM191.08,616.71h58.9c-2.3-5.7-7.8-9.7-14.3-9.7h-27.4c-7.1,0-13.1-5.2-14.1-12.3l-9.8-72.9c-2.5-18.7.8-37.8,9.1-54.6-3.8-1.6-7.6-3.3-11.3-5.1-4.5,8-19.3,31.5-21.6,34.8,0,0,29.8,119,30.4,119.7h0l.1.1ZM364.48,509.91c-4.1-12.4-6.6-26.3-7.4-41.2-10.3,4.1-20.9,7.3-31.8,9.7,2.5,8.4,5.9,15.7,10.2,21.3,5,6.8,10.7,10.7,17,11.8,6.2,1.1,11.6-1.4,12.1-1.6h-.1ZM381.08,577.01v-34.5c-.9-1.1-1.7-2.3-2.6-3.4l-8.3,36.9,10.4.9h.5v.1ZM381.08,615.21v-9.5c-.9-.2-29.4-2.9-29.4-2.9-4.1-.4-7.8-2.4-10.2-5.8-2.4-3.3-3.3-7.5-2.3-11.5l10.2-45.9s-5.5-.2-13.6-3.8l-6.5,74.7,51.7,4.6h0l.1.1ZM409.48,639.21h62.6c-2.3-5.7-7.8-9.7-14.3-9.7h-26.6c-4.1,0-8-1.7-10.6-4.8-2.7-3-3.9-7.2-3.4-11.2l6.2-46.6c-.5,0-9.9-1.2-13.9-2.6v74.9s0,0,0,0h0ZM649.18,159.51h19.4c-4.6-8.7-13.7-14.8-24.4-14.8h-105.8c-6,0-11.3-3.8-13.3-9.2-3.3-5.2-8.3-9.2-14-11.3-1.4,6.5-.5,13.4,2.8,19.4,4.8,8.7,14,14.2,23.9,14.5,7.8.2,14.1,6.6,13.9,14.5-.2,7.7-6.5,13.9-14.1,13.9h-.3c-4.7,0-9.2-.8-13.6-2v41.3c0,30.2-17.9,57.5-45.6,69.5-3.5,1.6-7.5,1.6-11,.2-3.5-1.5-6.3-4.3-7.7-7.8-1-2.5-60.6-111-60.6-111-8.4-15.3-19.1-24.1-29.5-24.1s-21.1,8.7-29.5,24.1l-8,14.4c-7.6,13.8-21.6,22-37.3,22s-29.7-8.2-37.3-22l-7.9-14.5c-8.4-15.2-19.2-24.1-29.5-24.1s-21.1,8.7-29.5,24.1l-15.1,27.6c-12.3,22.4-28,43.6-46.3,62.9-19.5,20.5-36,53.2-45.1,89.6v.5c-3.7,15.3-1,31.8,7.3,45.4,10.3,16.7,16.3,41.1,16.3,66.8s-1.9,28.9-5.5,41.6c-2.6,9-3.2,18.1-2,27.2l10.9,81.9c0,.6.2,19.4.2,19.4h62.6c-1.3-3.2-3.6-5.9-6.7-7.7-2.3-1.3-4.9-2-7.6-2h-27.4c-3.8,0-7.3-1.5-10.1-4.1-2.7-2.7-4.1-6.3-4.1-10.1l.4-76.8c0-16.2,4.3-32.1,12.3-46.3,1.3-2.3,10.5-16.2,13.2-20.4,8.2-12.7,14.8-24.2,20.4-35.2,1.7-3.4,4.8-6,8.5-7.2,3.7-1.1,7.7-.7,11.1,1.2,3,1.7,6.1,3.4,9.1,4.8,11.5,5.7,23.6,10.3,35.9,13.6,15.9,4.2,32.3,6.3,48.9,6.3,28.2,0,55.2-6,80.5-17.8.9-8.8,2.3-17.6,4.5-26.1,1.9-7.6,9.5-12.3,17.1-10.4s12.3,9.5,10.4,17.1c-2.1,8.8-3.5,17.9-4.2,27.1-3.8,53,17.1,91.6,38.3,93.1,13.1.9,24.1-11.4,29.4-18.8,10.8-15,18.2-36.2,21.1-59.6.9-7.7,8-13.3,15.8-12.3,2.3.2,6.2,1.7,6.2,1.7,40.6,11.1,91.4-39.5,110.9-110.5,5-18.2,7.7-36.4,8-54.1v-70.9c0-3,.9-5.6,2.4-7.9,2.6-3.7,6.9-6.2,11.8-6.2h15c10.5,0,19.8-6,24.4-14.8h-19.4c-7,0-12.7-5.7-12.7-12.7s5.7-12.8,12.7-12.8h0l-.5-.2ZM644.18,116.41c30.8,0,55.9,25.1,55.9,55.9s-25.1,55.9-55.9,55.9h-.9v57.2c-.3,20.2-3.4,40.7-9,61.2-11.3,41.2-31.9,77.3-58,101.8-21.8,20.5-45.5,31.2-68.5,31.2s-5.4-.2-8-.5c-4.5,22-12.7,42-23.7,57.3-7,9.7-14.8,17.2-23.1,22.3l-5.6,42.6h10.5c24,0,43.6,19.5,43.7,43.5,0,6.2-2.3,11.9-6.6,16.2s-9.9,6.6-16,6.6h-69.7c-14.1,0-25.6-10.4-27.7-23.9l-55-4.8c-15.4-1.3-26.8-15-25.5-30.4l8.4-96.4c-5.2-8.3-9.5-18.1-12.4-29.1-6.6.6-13.2.9-19.8.9-19.1,0-38-2.4-56.2-7.3h-.4c-7.3,12.5-10.2,27.3-8.3,41.6l8.1,60.6h15c24,0,43.6,19.5,43.7,43.5,0,6.2-2.3,11.9-6.6,16.2s-10,6.6-16,6.6h-54c0,8.8-5.2,16.7-13.1,20.4-3,1.4-6.2,2.1-9.5,2.1h-69.6c-15.5,0-28-12.6-28-28v-16.9l-10.9-80.9c-1.7-13-.8-26,2.8-38.7,2.9-10.2,4.5-21.9,4.5-33.8,0-20.3-4.5-39.7-12-51.9-9.1-14.8-13.6-32-13.1-49-7,4.5-11.6,12.3-11.6,21.3v44.1l12.8,36.8c1.5,4.3.9,9.1-1.8,12.9-2.7,3.7-7,5.9-11.6,5.9H14.28c-4.6,0-8.9-2.2-11.6-5.9s-3.4-8.5-1.9-12.9l12.8-36.8v-44.1c0-27,20.1-49.4,46.1-53.1,10.8-36.1,27.7-67.3,48.4-89.1,16.7-17.5,30.9-36.7,42-57l15.2-27.6c18.6-33.7,42-38.7,54.3-38.7s15.1,1.3,24.8,6.7c9.7,5.5,20.2,15.2,29.5,32l8,14.5c3.7,6.6,9.9,7.3,12.4,7.3s8.8-.7,12.4-7.3l8-14.4c18.6-33.7,42-38.7,54.3-38.7s35.8,5,54.3,38.7l54.8,99.4c10.7-8.9,17.1-22.2,17.1-36.5v-59.3c-2.3-2.8-4.5-5.8-6.2-9.1-9.7-17.5-9.2-39.1,1.1-56.2,2.7-4.4,7.3-7,12.4-6.9,17.3.4,33.3,8.7,43.6,22.2h98l.1-.2Z"/>
    <path class="cls-6" d="M668.58,159.51h-19.4c-7,0-12.7,5.7-12.7,12.7s5.7,12.7,12.7,12.7h19.4c-4.6,8.8-13.7,14.8-24.4,14.8h-15c-4.9,0-9.2,2.5-11.8,6.2-1.5,2.3-2.4,5-2.4,7.9v71c-.3,17.7-3,35.9-8,54.1-19.4,71-70.2,121.6-110.8,110.5,0,0-4-1.5-6.2-1.7-7.7-.9-14.8,4.6-15.8,12.3-2.8,23.4-10.3,44.6-21.1,59.6-5.3,7.4-16.2,19.8-29.4,18.8-21.2-1.6-42.1-40.2-38.3-93.1.7-9.2,2.1-18.4,4.2-27.1,1.9-7.6-2.8-15.2-10.4-17.1s-15.2,2.8-17.1,10.4c-2,8.4-3.5,17.2-4.5,26.1-25.2,11.8-52.3,17.8-80.5,17.8s-33-2.1-48.9-6.3c-12.3-3.3-24.5-7.8-35.9-13.6-3-1.5-6.1-3.1-9.1-4.8-3.4-1.9-7.3-2.3-11.1-1.2-3.7,1.1-6.8,3.7-8.5,7.2-5.5,10.9-12.2,22.4-20.4,35.2-2.7,4.2-12,18.1-13.2,20.4-8,14.1-12.2,30.1-12.3,46.3l-.4,76.8c0,3.7,1.5,7.3,4.1,10.1,2.7,2.7,6.2,4.1,10.1,4.1h27.4c2.7,0,5.3.7,7.6,2,3.1,1.7,5.4,4.5,6.7,7.7h-62.6s0-18.8-.2-19.4l-10.9-81.9c-1.3-9.1-.5-18.3,2-27.2,3.6-12.7,5.5-27,5.5-41.6,0-25.7-5.9-50-16.3-66.8-8.4-13.6-11-30.1-7.3-45.4v-.5c9.1-36.4,25.5-69.1,45.1-89.6,18.4-19.3,34-40.5,46.3-62.9l15.2-27.6c8.4-15.3,19.1-24.1,29.5-24.1s21.1,8.7,29.5,24.1l8,14.5c7.6,13.8,21.6,22,37.3,22s29.7-8.2,37.3-22l8-14.4c8.4-15.3,19.1-24.1,29.5-24.1s21.1,8.7,29.5,24.1c0,0,59.6,108.4,60.6,111,1.4,3.5,4.2,6.3,7.7,7.8,3.5,1.4,7.5,1.4,11-.2,27.7-12,45.6-39.3,45.6-69.5v-41.2c4.4,1.2,8.9,1.9,13.6,2h.3c7.7,0,14-6.2,14.1-13.9.2-7.8-6-14.3-13.9-14.5-9.9-.2-19.1-5.8-23.9-14.5-3.3-5.9-4.2-12.9-2.8-19.4,5.7,2.1,10.7,6,14,11.3,2,5.4,7.3,9.2,13.3,9.2h105.8c10.3-.2,19.5,5.9,24.1,14.6h0l.5.3Z"/>
    <path class="cls-5" d="M580.08,156.21c7.1,0,12.9,5.8,12.9,12.8s-5.8,12.9-12.9,12.9-12.9-5.8-12.9-12.9,5.8-12.8,12.9-12.8Z"/>
    <path class="cls-6" d="M472.08,639.21h-62.6v-75c3.9,1.3,13.3,2.6,13.8,2.6l-6.2,46.6c-.5,4.1.7,8.1,3.4,11.2,2.7,3,6.6,4.8,10.6,4.8h26.6c6.5,0,12,4.1,14.3,9.8h.1ZM381.08,605.71v9.5l-51.9-4.6,6.5-74.7c8.2,3.6,13.6,3.8,13.6,3.8l-10.2,45.9c-.9,4,0,8.1,2.3,11.5,2.4,3.3,6.1,5.4,10.2,5.8,0,0,28.5,2.6,29.5,2.8ZM357.08,468.81c.9,14.8,3.4,28.7,7.4,41.2-.5.2-5.9,2.7-12.1,1.6-6.2-1-12-4.9-17-11.8-4.1-5.6-7.6-12.9-10.2-21.3,10.8-2.4,21.5-5.6,31.8-9.7h.1Z"/>
    <path class="cls-5" d="M328.38,397.11c2.1,7.6-2.3,15.3-9.9,17.4-13.3,3.7-27.2,5.5-41.2,5.5s-27-1.7-39.8-5.2c-12.7-3.4-25-8.4-36.6-14.9-6.8-3.8-9.2-12.5-5.3-19.3,3.8-6.8,12.5-9.2,19.3-5.3,9.5,5.4,19.5,9.5,29.8,12.2,10.5,2.8,21.6,4.2,32.6,4.2s22.9-1.5,33.8-4.5c7.6-2.1,15.4,2.3,17.4,9.8h0l-.1.1Z"/>
    <path class="cls-6" d="M249.98,616.71h-58.9c-.5-.7-30.3-119.8-30.3-119.8,2.3-3.4,17.1-26.8,21.6-34.8,3.7,1.8,7.5,3.4,11.3,5.1-8.4,16.8-11.6,35.9-9.1,54.6l9.8,72.9c.9,7,7,12.3,14.1,12.3h27.4c6.3,0,12,4.1,14.2,9.8h0l-.1-.1Z"/>
  </g>
  <g id="Capa_2">
    <rect class="cls-2" x="440.84" y="38.61" width="117.9" height="138" transform="translate(62.26 372.06) rotate(-43.3)"/>
    <rect class="cls-2" x="450.61" y="134.14" width="178.9" height="32.4" transform="translate(43.91 411.31) rotate(-43.3)"/>
    <rect class="cls-1" x="322.41" y="70.57" width="48.1" height="531.5" rx="12.6" ry="12.6" transform="translate(-6.97 665.32) rotate(-87.1)"/>
    <circle class="cls-3" cx="81.88" cy="320.31" r="34"/>
    <circle class="cls-3" cx="601.18" cy="347.11" r="34"/>
    <rect class="cls-4" x="187.09" y="107.17" width="189.3" height="189.3" transform="translate(65.93 472.98) rotate(-87.1)"/>
  </g>
</svg>