<?xml version="1.0" encoding="UTF-8"?>
<svg id="Capa_1" xmlns="http://www.w3.org/2000/svg" viewBox="0 0 601.38 438.28">
  <defs>
    <style>
      .cls-1 {
        fill: #89530b;
        stroke: #633;
        stroke-miterlimit: 10;
        stroke-width: 24px;
      }
    </style>
  </defs>
  <g id="Capa_2">
    <rect class="cls-1" x="12.16" y="299.71" width="126.4" height="126.4" transform="translate(-.8 .17) rotate(-.13)"/>
  </g>
  <g id="Capa_2-2" data-name="Capa_2">
    <rect class="cls-1" x="162.57" y="299.71" width="126.4" height="126.4" transform="translate(-.79 .5) rotate(-.13)"/>
  </g>
  <g id="Capa_2-3" data-name="Capa_2">
    <rect class="cls-1" x="312.48" y="299.67" width="126.4" height="126.4" transform="translate(-.79 .82) rotate(-.13)"/>
  </g>
  <g id="Capa_2-4" data-name="Capa_2">
    <rect class="cls-1" x="462.81" y="299.16" width="126.4" height="126.4" transform="translate(-.79 1.15) rotate(-.13)"/>
  </g>
  <g id="Capa_2-5" data-name="Capa_2">
    <rect class="cls-1" x="89.13" y="156.73" width="126.4" height="126.4" transform="translate(-.48 .33) rotate(-.13)"/>
  </g>
  <g id="Capa_2-6" data-name="Capa_2">
    <rect class="cls-1" x="239.04" y="156.68" width="126.4" height="126.4" transform="translate(-.48 .66) rotate(-.13)"/>
  </g>
  <g id="Capa_2-7" data-name="Capa_2">
    <rect class="cls-1" x="389.37" y="156.17" width="126.4" height="126.4" transform="translate(-.48 .99) rotate(-.13)"/>
  </g>
  <g id="Capa_2-8" data-name="Capa_2">
    <rect class="cls-1" x="163.87" y="12.68" width="126.4" height="126.4" transform="translate(-.17 .5) rotate(-.13)"/>
  </g>
  <g id="Capa_2-9" data-name="Capa_2">
    <rect class="cls-1" x="314.2" y="12.16" width="126.4" height="126.4" transform="translate(-.16 .83) rotate(-.13)"/>
  </g>
</svg>